<svg width="28" height="27" viewBox="0 0 28 27" fill="none" xmlns="http://www.w3.org/2000/svg">
<path d="M23.6937 12.7757C23.6975 14.242 23.3549 15.6884 22.6938 16.9972C21.91 18.5655 20.705 19.8847 19.2138 20.8069C17.7226 21.7291 16.0041 22.2179 14.2508 22.2186C12.7845 22.2224 11.338 21.8798 10.0292 21.2187L3.69696 23.3295L5.80772 16.9972C5.14664 15.6884 4.80406 14.242 4.80789 12.7757C4.80857 11.0224 5.29738 9.30386 6.21956 7.81266C7.14175 6.32147 8.4609 5.11646 10.0292 4.33263C11.338 3.67155 12.7845 3.32897 14.2508 3.3328H14.8062C17.1218 3.46054 19.3089 4.4379 20.9487 6.07774C22.5885 7.71758 23.5659 9.90465 23.6937 12.2202V12.7757Z" stroke="white" stroke-width="2" stroke-linecap="round" stroke-linejoin="round"/>
</svg>
