<svg width="42" height="42" viewBox="0 0 42 42" fill="none" xmlns="http://www.w3.org/2000/svg">
<path d="M33.9667 26.0833C33.7282 26.6237 33.657 27.2232 33.7624 27.8044C33.8678 28.3856 34.1449 28.9219 34.5579 29.3442L34.6654 29.4517C34.9986 29.7845 35.2629 30.1797 35.4432 30.6147C35.6235 31.0497 35.7164 31.516 35.7164 31.9869C35.7164 32.4578 35.6235 32.9241 35.4432 33.3591C35.2629 33.7941 34.9986 34.1893 34.6654 34.5221C34.3326 34.8552 33.9374 35.1195 33.5024 35.2999C33.0674 35.4802 32.6011 35.573 32.1302 35.573C31.6593 35.573 31.193 35.4802 30.758 35.2999C30.323 35.1195 29.9278 34.8552 29.595 34.5221L29.4875 34.4146C29.0652 34.0015 28.5289 33.7245 27.9477 33.6191C27.3665 33.5137 26.7671 33.5848 26.2267 33.8233C25.6967 34.0504 25.2448 34.4276 24.9265 34.9082C24.6081 35.3889 24.4373 35.9522 24.435 36.5287V36.8333C24.435 37.7837 24.0575 38.6951 23.3855 39.3671C22.7135 40.0391 21.802 40.4167 20.8517 40.4167C19.9013 40.4167 18.9899 40.0391 18.3179 39.3671C17.6459 38.6951 17.2683 37.7837 17.2683 36.8333V36.6721C17.2545 36.079 17.0625 35.5039 16.7174 35.0214C16.3723 34.5389 15.8901 34.1714 15.3333 33.9667C14.7929 33.7282 14.1935 33.657 13.6123 33.7624C13.0311 33.8678 12.4948 34.1449 12.0725 34.5579L11.965 34.6654C11.6322 34.9986 11.237 35.2629 10.802 35.4432C10.367 35.6235 9.9007 35.7164 9.42979 35.7164C8.95889 35.7164 8.4926 35.6235 8.05759 35.4432C7.62258 35.2629 7.22738 34.9986 6.89458 34.6654C6.56142 34.3326 6.29711 33.9374 6.11679 33.5024C5.93646 33.0674 5.84364 32.6011 5.84364 32.1302C5.84364 31.6593 5.93646 31.193 6.11679 30.758C6.29711 30.323 6.56142 29.9278 6.89458 29.595L7.00208 29.4875C7.41513 29.0652 7.69221 28.5289 7.79759 27.9477C7.90297 27.3665 7.83183 26.7671 7.59333 26.2267C7.36622 25.6967 6.9891 25.2448 6.50842 24.9265C6.02773 24.6081 5.46445 24.4373 4.88792 24.435H4.58333C3.63297 24.435 2.72154 24.0575 2.04953 23.3855C1.37753 22.7135 1 21.802 1 20.8517C1 19.9013 1.37753 18.9899 2.04953 18.3179C2.72154 17.6459 3.63297 17.2683 4.58333 17.2683H4.74458C5.33761 17.2545 5.91276 17.0625 6.39524 16.7174C6.87773 16.3723 7.24524 15.8901 7.45 15.3333C7.6885 14.7929 7.75964 14.1935 7.65426 13.6123C7.54887 13.0311 7.27179 12.4948 6.85875 12.0725L6.75125 11.965C6.41808 11.6322 6.15378 11.237 5.97345 10.802C5.79312 10.367 5.70031 9.9007 5.70031 9.42979C5.70031 8.95889 5.79312 8.4926 5.97345 8.05759C6.15378 7.62258 6.41808 7.22738 6.75125 6.89458C7.08404 6.56142 7.47925 6.29711 7.91426 6.11679C8.34926 5.93646 8.81555 5.84364 9.28646 5.84364C9.75736 5.84364 10.2237 5.93646 10.6587 6.11679C11.0937 6.29711 11.4889 6.56142 11.8217 6.89458L11.9292 7.00208C12.3514 7.41513 12.8877 7.69221 13.4689 7.79759C14.0502 7.90297 14.6496 7.83183 15.19 7.59333H15.3333C15.8633 7.36622 16.3152 6.9891 16.6335 6.50842C16.9519 6.02773 17.1227 5.46445 17.125 4.88792V4.58333C17.125 3.63297 17.5025 2.72154 18.1745 2.04953C18.8465 1.37753 19.758 1 20.7083 1C21.6587 1 22.5701 1.37753 23.2421 2.04953C23.9141 2.72154 24.2917 3.63297 24.2917 4.58333V4.74458C24.294 5.32112 24.4648 5.8844 24.7831 6.36508C25.1015 6.84577 25.5534 7.22288 26.0833 7.45C26.6237 7.6885 27.2232 7.75964 27.8044 7.65426C28.3856 7.54887 28.9219 7.27179 29.3442 6.85875L29.4517 6.75125C29.7845 6.41808 30.1797 6.15378 30.6147 5.97345C31.0497 5.79312 31.516 5.70031 31.9869 5.70031C32.4578 5.70031 32.9241 5.79312 33.3591 5.97345C33.7941 6.15378 34.1893 6.41808 34.5221 6.75125C34.8552 7.08404 35.1195 7.47925 35.2999 7.91426C35.4802 8.34926 35.573 8.81555 35.573 9.28646C35.573 9.75736 35.4802 10.2237 35.2999 10.6587C35.1195 11.0937 34.8552 11.4889 34.5221 11.8217L34.4146 11.9292C34.0015 12.3514 33.7245 12.8877 33.6191 13.4689C33.5137 14.0502 33.5848 14.6496 33.8233 15.19V15.3333C34.0504 15.8633 34.4276 16.3152 34.9082 16.6335C35.3889 16.9519 35.9522 17.1227 36.5287 17.125H36.8333C37.7837 17.125 38.6951 17.5025 39.3671 18.1745C40.0391 18.8465 40.4167 19.758 40.4167 20.7083C40.4167 21.6587 40.0391 22.5701 39.3671 23.2421C38.6951 23.9141 37.7837 24.2917 36.8333 24.2917H36.6721C36.0955 24.294 35.5323 24.4648 35.0516 24.7831C34.5709 25.1015 34.1938 25.5534 33.9667 26.0833V26.0833Z" stroke="white" stroke-width="2" stroke-linecap="round" stroke-linejoin="round"/>
</svg>
