<svg width="27" height="27" viewBox="0 0 27 27" fill="none" xmlns="http://www.w3.org/2000/svg">
<g clip-path="url(#clip0_32_1890)">
<path d="M23.1583 5.12137C22.5909 4.55369 21.9172 4.10337 21.1757 3.79613C20.4342 3.48889 19.6395 3.33075 18.8368 3.33075C18.0342 3.33075 17.2394 3.48889 16.4979 3.79613C15.7564 4.10337 15.0827 4.55369 14.5153 5.12137L13.3377 6.29895L12.1602 5.12137C11.014 3.97524 9.45953 3.33134 7.83865 3.33134C6.21777 3.33134 4.66327 3.97524 3.51714 5.12137C2.371 6.26751 1.72711 7.822 1.72711 9.44288C1.72711 11.0638 2.371 12.6182 3.51714 13.7644L4.69472 14.942L13.3377 23.585L21.9807 14.942L23.1583 13.7644C23.726 13.197 24.1763 12.5233 24.4836 11.7818C24.7908 11.0403 24.949 10.2455 24.949 9.44288C24.949 8.64025 24.7908 7.84548 24.4836 7.10398C24.1763 6.36248 23.726 5.68878 23.1583 5.12137V5.12137Z" stroke="white" stroke-width="2" stroke-linecap="round" stroke-linejoin="round"/>
</g>
<defs>
<clipPath id="clip0_32_1890">
<rect width="26.6623" height="26.6623" fill="white" transform="translate(0.0065918)"/>
</clipPath>
</defs>
</svg>
